<?xml version="1.0" standalone="no"?>
<!DOCTYPE svg PUBLIC "-//W3C//DTD SVG 1.1//EN" "http://www.w3.org/Graphics/SVG/1.1/DTD/svg11.dtd" >
<svg xmlns="http://www.w3.org/2000/svg" xmlns:xlink="http://www.w3.org/1999/xlink" version="1.1">
<metadata>
Created by FontForge 20190801 at Tue Mar 11 05:42:29 2008
 By Jimmy Wärting
BPG Nino, universal Unicode Georgian font
</metadata>
<defs>
<font id="BPGNinoMtavruli" horiz-adv-x="504" >
  <font-face 
    font-family="BPG Nino Mtavruli"
    font-weight="400"
    font-style="italic"
    font-stretch="normal"
    units-per-em="1050"
    panose-1="2 0 5 6 0 0 0 2 0 4"
    ascent="840"
    descent="-210"
    x-height="523"
    cap-height="770"
    bbox="-12 -208 1185 852"
    underline-thickness="25"
    underline-position="-51"
    slope="-25"
    unicode-range="U+0020-2122"
  />
<missing-glyph horiz-adv-x="890" 
d="M173 70v651h587v-651h-587zM158 50h616v691h-616v-691z" />
    <glyph glyph-name=".notdef" horiz-adv-x="890" 
d="M173 70v651h587v-651h-587zM158 50h616v691h-616v-691z" />
    <glyph glyph-name=".null" horiz-adv-x="0" 
 />
    <glyph glyph-name="nonmarkingreturn" horiz-adv-x="330" 
 />
    <glyph glyph-name="space" unicode=" " horiz-adv-x="205" 
 />
    <glyph glyph-name="exclam" unicode="!" horiz-adv-x="286" 
d="M112 79h78v74h-78v-74zM137 261h30l27 373v189h-85v-189v-1z" />
    <glyph glyph-name="quotedbl" unicode="&#x22;" horiz-adv-x="316" 
d="M234 636h21l22 110v90h-65v-88zM75 636h26l18 112v88h-65v-90z" />
    <glyph glyph-name="numbersign" unicode="#" horiz-adv-x="926" 
d="M901 164h-223v-51h223v51zM787 498c47 0 76 -36 76 -75c0 -44 -25 -75 -76 -75c-42 0 -71 33 -71 76c0 37 29 74 71 74zM787 549c-75 0 -117 -62 -117 -126c0 -70 44 -129 117 -129c79 0 124 57 124 128c0 64 -45 127 -124 127zM665 778c32 0 65 -35 67 -64h52
c-6 65 -61 115 -119 115c-56 0 -109 -56 -109 -121v-517l-303 606h-156v-52h103v-544c0 -44 -27 -66 -63 -66c-24 0 -58 25 -62 62h-46c7 -61 52 -117 113 -117c63 0 108 60 108 121v490l304 -611h52v628c0 33 25 70 59 70z" />
    <glyph glyph-name="dollar" unicode="$" horiz-adv-x="512" 
d="M351 284l-12 1c-32 17 -68 39 -113 64c-109 60 -133 84 -133 132c0 36 25 66 92 102c30 -24 66 -45 106 -68c54 -32 98 -58 115 -78c15 -19 30 -44 30 -62c0 -29 -26 -66 -85 -91zM135 151l-57 -8c21 -87 87 -139 196 -139s178 65 178 134c0 46 -27 83 -90 127
c50 20 80 35 93 49c18 18 31 50 31 78c0 42 -22 81 -61 108c-19 13 -59 39 -101 62c-77 41 -139 81 -158 99c-15 15 -21 34 -21 52c0 45 54 81 117 81c64 0 105 -21 121 -96l59 7c-20 84 -78 131 -187 131c-99 0 -162 -61 -162 -130c0 -31 18 -67 74 -112
c-94 -32 -123 -72 -123 -120c0 -45 29 -82 62 -113c20 -17 52 -36 99 -62c89 -48 148 -90 170 -112c14 -14 22 -33 22 -49c0 -49 -51 -90 -123 -90c-76 0 -121 29 -139 103z" />
    <glyph glyph-name="percent" unicode="%" horiz-adv-x="847" 
d="M187 51h45l441 781h-43zM211 793c61 0 109 -38 109 -146c0 -112 -45 -156 -109 -156s-110 41 -110 146c0 125 48 156 110 156zM649 391c61 0 110 -41 110 -147c0 -113 -48 -157 -111 -157c-58 0 -110 39 -110 148c0 118 45 156 111 156zM48 648c0 -132 68 -194 161 -194
c88 0 163 65 163 188c0 124 -71 190 -166 190c-103 0 -158 -83 -158 -184zM487 245c0 -135 66 -194 160 -194c89 0 165 65 165 187c0 121 -74 191 -166 191c-105 0 -159 -85 -159 -184z" />
    <glyph glyph-name="ampersand" unicode="&#x26;" horiz-adv-x="723" 
d="M471 684c0 -47 -31 -95 -145 -158c-85 91 -106 136 -106 160c0 64 68 111 128 111c66 0 123 -54 123 -113zM295 471l222 -243c-61 -77 -145 -111 -211 -111c-114 0 -187 100 -188 170c-2 86 69 122 177 184zM537 173l8 18c43 -43 90 -97 125 -119l44 46
c-49 37 -80 78 -123 126c28 42 53 95 70 155l-58 16c-13 -39 -30 -85 -55 -130c-18 22 -174 184 -196 215c108 57 178 118 178 186c0 79 -72 150 -179 150c-105 0 -192 -71 -192 -158c0 -76 48 -92 103 -172c-138 -62 -208 -135 -208 -222c0 -117 105 -213 252 -213
c84 0 160 34 231 102z" />
    <glyph glyph-name="quotesingle" unicode="'" horiz-adv-x="170" 
d="M75 635h26l20 108v93h-65v-92z" />
    <glyph glyph-name="parenleft" unicode="(" horiz-adv-x="378" 
d="M292 -192h37c-115 175 -173 344 -173 512c0 69 12 146 29 212c11 45 39 116 61 161c12 26 40 79 82 141h-36c-62 -79 -131 -186 -160 -264c-28 -74 -46 -162 -46 -250c0 -91 24 -190 62 -277c38 -86 91 -167 144 -235z" />
    <glyph glyph-name="parenright" unicode=")" horiz-adv-x="378" 
d="M95 -190h38c56 67 104 149 146 234c43 85 59 185 59 278c0 89 -14 174 -44 250c-32 81 -99 182 -161 264h-36c43 -63 73 -114 86 -143c18 -43 47 -118 58 -159c17 -59 28 -147 28 -212c0 -168 -56 -337 -174 -512z" />
    <glyph glyph-name="asterisk" unicode="*" horiz-adv-x="573" 
d="M301 571l-6 2l15 140v7c0 26 -12 30 -23 30s-24 -5 -24 -30c0 -3 0 -5 1 -7l14 -140l-6 -2l-89 108c-7 8 -13 17 -20 17h-6c-4 0 -10 -1 -17 -6c-4 -5 -6 -10 -6 -15c0 -9 8 -19 17 -27l108 -89l-2 -7l-140 15h-7c-25 0 -29 -12 -29 -23c0 -12 4 -24 29 -24c3 0 6 0 7 1
l140 14l2 -6l-108 -89c-9 -8 -17 -18 -17 -27c0 -6 2 -11 6 -15c5 -4 10 -6 15 -6c11 0 19 6 28 17l89 108l6 -2l-14 -140c-1 -2 -1 -4 -1 -7c0 -26 13 -30 24 -30s23 5 23 29v8l-15 140l6 2l90 -108c7 -11 18 -17 27 -17c5 0 10 2 15 6c5 5 6 12 6 17v5c0 8 -8 13 -17 20
l-108 89l2 6l140 -14c3 -1 4 -1 7 -1c25 0 30 12 30 24c0 11 -6 23 -31 23h-6l-140 -15l-2 7l108 89c9 7 17 12 17 20v5c0 5 -1 10 -6 17c-7 5 -13 6 -17 6h-5c-8 0 -15 -9 -20 -17z" />
    <glyph glyph-name="plus" unicode="+" horiz-adv-x="520" 
d="M249 135h49v173h189v49h-189v172h-49v-172h-189v-49h189v-173z" />
    <glyph glyph-name="comma" unicode="," horiz-adv-x="257" 
d="M73 -83l17 -17c59 54 94 127 94 191c0 53 -22 74 -55 74c-22 0 -48 -15 -48 -50c0 -25 21 -40 45 -40h5c4 0 7 0 8 1c1 -8 3 -16 3 -24c0 -38 -19 -79 -69 -135z" />
    <glyph glyph-name="hyphen" unicode="-" horiz-adv-x="378" 
d="M23 270h351v69h-351v-69z" />
    <glyph glyph-name="period" unicode="." horiz-adv-x="272" 
d="M88 126c0 -27 23 -49 48 -49s48 21 48 49c0 27 -21 47 -48 47c-26 0 -48 -21 -48 -47z" />
    <glyph glyph-name="slash" unicode="/" horiz-adv-x="300" 
d="M15 71h46l237 765h-43z" />
    <glyph glyph-name="zero" unicode="0" 
d="M252 135c-55 1 -100 33 -130 89c-29 54 -42 128 -42 219c0 95 12 169 38 222c30 54 74 86 134 86c63 0 109 -32 136 -86c25 -54 36 -131 36 -222c0 -92 -13 -165 -43 -220c-31 -58 -74 -88 -129 -88zM252 79c82 0 140 28 173 85c37 60 54 152 54 279s-17 218 -54 277
c-34 59 -92 86 -173 86c-151 0 -227 -115 -227 -363c0 -249 76 -364 227 -364z" />
    <glyph glyph-name="one" unicode="1" horiz-adv-x="336" 
d="M188 79h53v727h-53c-1 -37 -9 -58 -22 -74v1c-15 -16 -45 -24 -93 -25v-57h115v-572z" />
    <glyph glyph-name="two" unicode="2" 
d="M25 79h454v56h-385l324 324c39 38 61 82 61 135c0 60 -17 119 -55 154c-37 37 -112 58 -172 58c-81 0 -139 -25 -173 -76c-34 -48 -51 -89 -52 -127h53c4 32 19 69 43 95c32 35 74 53 129 53c52 0 98 -16 130 -54c22 -25 32 -58 32 -92c0 -37 -15 -73 -45 -103l-344 -360
v-63z" />
    <glyph glyph-name="three" unicode="3" horiz-adv-x="513" 
d="M274 471v-56c47 -3 84 -15 113 -37c30 -24 47 -61 47 -103c0 -54 -20 -94 -55 -112c-34 -19 -74 -28 -118 -28c-50 0 -93 15 -125 45c-27 28 -44 71 -48 113h-53c1 -70 22 -118 64 -155c43 -37 100 -59 162 -59c68 0 125 16 167 47c40 29 59 79 59 149
c0 83 -59 147 -119 166c60 24 119 91 119 170c0 62 -21 110 -62 144c-42 35 -96 51 -164 51c-83 0 -139 -26 -174 -76c-33 -48 -48 -89 -51 -127h52c4 32 18 68 43 95c32 35 75 53 130 53c52 0 96 -14 127 -39c31 -26 46 -62 46 -101c0 -47 -17 -84 -49 -107
c-30 -21 -67 -30 -111 -33z" />
    <glyph glyph-name="four" unicode="4" 
d="M85 388l213 340v-340h-213zM298 79h53v251h128v58h-128v418h-59l-267 -409v-67h273v-251z" />
    <glyph glyph-name="five" unicode="5" 
d="M25 796v-351l56 -26c12 24 35 42 65 56c31 14 65 23 106 23c50 0 94 -17 126 -53c32 -33 46 -77 46 -129c0 -56 -12 -98 -44 -132c-30 -33 -72 -49 -128 -49c-87 0 -140 31 -172 94l-51 -22c14 -35 42 -67 72 -89c34 -25 89 -39 151 -39c70 0 125 22 165 66
c40 45 62 101 62 171c0 71 -22 128 -65 171c-44 45 -97 68 -162 68c-67 0 -125 -25 -172 -75v260h375v56h-430z" />
    <glyph glyph-name="six" unicode="6" 
d="M252 135c-46 0 -91 28 -123 80c-32 50 -47 120 -47 208c28 31 54 52 81 61c24 9 58 14 89 14c55 0 96 -15 126 -47c31 -33 46 -76 46 -135s-14 -103 -48 -136c-32 -31 -72 -45 -124 -45zM252 79c66 0 120 23 163 68s64 101 64 169c0 71 -22 126 -64 170
c-44 45 -98 69 -163 69c-60 0 -117 -21 -171 -64c4 91 21 157 50 198c30 41 70 62 121 62c75 0 137 -28 179 -69l35 29c-24 29 -50 50 -79 66c-35 19 -77 29 -135 29c-75 0 -128 -30 -167 -91c-39 -62 -60 -151 -60 -272c0 -113 20 -203 57 -269c35 -64 91 -95 170 -95z" />
    <glyph glyph-name="seven" unicode="7" 
d="M36 79h66l366 641v65h-453v-55h391z" />
    <glyph glyph-name="eight" unicode="8" 
d="M252 471c-52 0 -88 14 -114 41c-23 27 -35 58 -35 99c0 38 13 72 40 99c24 25 60 41 109 41s86 -15 112 -43c26 -29 37 -60 37 -97c0 -41 -15 -77 -42 -102c-27 -26 -63 -38 -107 -38zM252 135c-52 0 -93 11 -124 33c-33 22 -48 58 -48 107c0 102 51 140 172 140
c59 0 101 -12 129 -34c30 -23 43 -60 43 -106c0 -92 -66 -140 -172 -140zM252 79c68 0 122 21 164 58c42 38 63 82 63 138c0 78 -38 136 -113 175c59 43 90 95 90 161c0 63 -18 109 -60 144c-41 34 -86 51 -142 51c-63 0 -110 -16 -149 -49c-39 -34 -57 -80 -57 -146
c0 -60 32 -114 89 -161c-74 -38 -112 -96 -112 -175c0 -56 21 -100 62 -138c44 -40 98 -58 165 -58z" />
    <glyph glyph-name="nine" unicode="9" 
d="M252 751c47 0 88 -19 119 -54c31 -36 43 -83 43 -145c0 -59 -23 -102 -58 -128c-32 -24 -69 -36 -104 -36c-54 0 -94 13 -126 47c-32 31 -46 76 -46 134c0 60 15 104 48 134c33 33 73 48 124 48zM252 806c-66 0 -121 -23 -163 -67c-43 -45 -64 -103 -64 -170
c0 -69 20 -126 64 -171c43 -43 97 -68 163 -68c57 0 117 39 181 115c-12 -125 -32 -209 -60 -248c-31 -41 -72 -62 -121 -62c-75 0 -136 25 -178 69l-34 -32c22 -24 51 -49 77 -65c34 -20 80 -28 135 -28c148 0 227 127 227 364c0 111 -12 198 -56 266
c-42 63 -92 97 -171 97z" />
    <glyph glyph-name="colon" unicode=":" horiz-adv-x="272" 
d="M88 428c0 -27 23 -49 48 -49c26 0 48 22 48 49s-21 47 -48 47c-26 0 -48 -23 -48 -47zM88 127c0 -27 23 -49 48 -49s48 20 48 49c0 27 -21 47 -48 47c-26 0 -48 -23 -48 -47z" />
    <glyph glyph-name="semicolon" unicode=";" horiz-adv-x="257" 
d="M81 426c0 -27 22 -49 48 -49s47 22 47 49s-20 47 -47 47c-26 0 -48 -23 -48 -47zM73 -84l17 -16c59 53 94 124 94 191c0 52 -22 73 -55 73c-22 0 -48 -15 -48 -49c0 -25 21 -40 45 -40h5c4 0 7 0 8 1c1 -8 3 -17 3 -25c0 -38 -19 -78 -69 -135z" />
    <glyph glyph-name="less" unicode="&#x3c;" horiz-adv-x="520" 
d="M58 292l429 -166v50l-383 145l383 144v50l-429 -165v-58z" />
    <glyph glyph-name="equal" unicode="=" horiz-adv-x="520" 
d="M487 372v49h-427v-49h427zM487 179v49h-427v-49h427z" />
    <glyph glyph-name="greater" unicode="&#x3e;" horiz-adv-x="520" 
d="M487 292v60l-429 163v-51l383 -143l-383 -145v-52z" />
    <glyph glyph-name="question" unicode="?" horiz-adv-x="424" 
d="M218 181c-32 0 -53 -24 -53 -53c0 -28 21 -49 53 -49c31 0 48 22 48 49c0 29 -17 53 -48 53zM240 252v82c0 31 13 40 55 84c70 72 113 122 113 199c0 102 -71 205 -181 205c-96 0 -181 -74 -181 -166c0 -68 45 -141 121 -141c59 0 90 35 90 88c0 18 -4 39 -16 67h-27
c5 -20 6 -36 6 -46c0 -38 -17 -55 -53 -55c-46 0 -68 47 -68 87c0 62 64 122 128 122c86 0 129 -92 129 -161c0 -55 -32 -100 -86 -152c-47 -46 -80 -84 -80 -131v-82h50z" />
    <glyph glyph-name="at" unicode="@" horiz-adv-x="835" 
d="M268 298c0 46 9 95 27 143c18 47 40 82 63 102s49 31 73 31c32 0 57 -14 79 -45c21 -27 32 -67 32 -119c0 -49 -9 -97 -25 -142v1c-20 -48 -42 -80 -70 -103c-25 -21 -50 -33 -73 -33c-27 0 -53 16 -74 45c-20 29 -32 69 -32 120zM481 160l20 -5c3 -55 23 -78 73 -78
c57 0 110 31 160 96c60 79 90 169 90 274c0 76 -18 145 -49 208c-65 124 -176 191 -310 191c-76 0 -151 -21 -211 -60c-60 -38 -112 -102 -149 -186v0c-41 -85 -61 -179 -61 -285c0 -98 20 -184 56 -251c72 -137 197 -214 375 -214c59 0 112 11 160 28c46 20 90 49 128 85
c33 33 59 67 77 104h-57c-27 -46 -70 -87 -121 -115v0c-56 -30 -117 -43 -187 -43c-240 0 -389 149 -389 413c0 94 20 176 51 249c72 146 187 220 324 220c57 0 115 -16 161 -45c48 -29 88 -71 117 -122c27 -52 42 -112 42 -174c0 -55 -10 -108 -31 -156h1
c-17 -47 -46 -84 -75 -110c-28 -27 -54 -42 -73 -42c-22 0 -41 19 -41 47c0 6 4 34 14 84l59 341h-57c-2 -29 -13 -81 -18 -106c-38 81 -92 123 -135 123c-28 0 -59 -15 -93 -37c-32 -26 -61 -68 -86 -119c-23 -57 -36 -113 -36 -170c0 -71 19 -129 50 -174
c27 -37 60 -53 98 -53s84 27 123 82z" />
    <glyph glyph-name="A" unicode="A" horiz-adv-x="724" 
d="M220 325l142 379l146 -379h-288zM66 75h59l73 193h329l73 -193h57l-262 695h-65z" />
    <glyph glyph-name="B" unicode="B" 
d="M249 770h-183v-695h183c130 0 188 69 188 220c0 76 -49 134 -99 159c50 27 99 73 99 129s-16 101 -45 136c-30 35 -76 51 -143 51zM126 134v292h123c38 0 69 -11 93 -35c24 -22 35 -60 35 -112s-12 -93 -35 -115c-23 -21 -54 -30 -88 -30h-128zM126 485v228h123
c40 0 71 -13 93 -33c24 -23 35 -51 35 -83c0 -33 -11 -60 -35 -80c-25 -21 -54 -32 -93 -32h-123z" />
    <glyph glyph-name="C" unicode="C" horiz-adv-x="625" 
d="M334 75c66 0 116 11 148 34c30 22 55 55 75 95l-47 20c-20 -37 -41 -59 -67 -71c-29 -14 -64 -19 -109 -19c-64 0 -117 31 -153 89c-36 57 -55 128 -55 199c0 76 18 142 55 201c36 57 89 90 153 90c79 0 135 -33 174 -100l50 26c-19 38 -45 66 -81 91
c-37 25 -87 40 -151 40c-76 0 -139 -34 -187 -101s-73 -150 -73 -247c0 -102 25 -189 73 -252c46 -59 115 -95 195 -95z" />
    <glyph glyph-name="D" unicode="D" horiz-adv-x="598" 
d="M126 134v579h122c144 0 225 -94 225 -291c0 -103 -22 -179 -67 -223c-45 -43 -98 -65 -158 -65h-122zM66 75h182c76 0 142 27 198 82c58 56 86 143 86 265c0 128 -26 215 -82 268c-56 54 -124 80 -202 80h-182v-695z" />
    <glyph glyph-name="E" unicode="E" horiz-adv-x="543" 
d="M66 75h411v59h-351v260h239v58h-239v261h351v57h-411v-695z" />
    <glyph glyph-name="F" unicode="F" horiz-adv-x="515" 
d="M66 75h60v319h239v58h-239v261h351v57h-411v-695z" />
    <glyph glyph-name="G" unicode="G" horiz-adv-x="625" 
d="M373 75c63 0 137 32 185 83v241h-209v-57h154v-157c-38 -34 -81 -51 -129 -51c-90 0 -156 30 -193 89c-35 57 -55 128 -55 199c0 76 18 142 55 201c36 57 89 90 153 90c79 0 135 -33 174 -100l50 26c-19 38 -45 66 -81 91c-37 25 -87 40 -151 40
c-76 0 -139 -34 -187 -101s-73 -150 -73 -247c0 -102 25 -189 73 -252c46 -60 128 -95 234 -95z" />
    <glyph glyph-name="H" unicode="H" horiz-adv-x="573" 
d="M66 75h59v319h322v-319h60v695h-60v-318h-322v318h-59v-695z" />
    <glyph glyph-name="I" unicode="I" horiz-adv-x="191" 
d="M66 75h59v695h-59v-695z" />
    <glyph glyph-name="J" unicode="J" horiz-adv-x="511" 
d="M257 75c57 0 102 15 138 47c32 28 50 77 50 140v508h-57v-508c0 -80 -36 -128 -131 -128c-87 0 -128 37 -131 117h-60c3 -55 24 -102 51 -126c35 -31 87 -50 140 -50z" />
    <glyph glyph-name="K" unicode="K" horiz-adv-x="581" 
d="M66 75h60v237l76 100l241 -337h72l-274 385l241 310h-70l-286 -362v362h-60v-695z" />
    <glyph glyph-name="L" unicode="L" horiz-adv-x="543" 
d="M66 75h411v59h-351v636h-60v-695z" />
    <glyph glyph-name="M" unicode="M" horiz-adv-x="750" 
d="M66 75h60v594l248 -408h1l250 408v-594h58v695h-63l-245 -399l-244 399h-65v-695z" />
    <glyph glyph-name="N" unicode="N" horiz-adv-x="622" 
d="M492 75h64v695h-58v-591l-367 591h-65v-695h60v593z" />
    <glyph glyph-name="O" unicode="O" horiz-adv-x="671" 
d="M334 134c-49 0 -101 29 -142 75c-43 50 -65 122 -65 213s18 163 58 213c40 49 93 78 149 78c65 0 119 -31 156 -84c34 -53 56 -126 56 -207c0 -88 -20 -164 -56 -213c-36 -50 -91 -75 -156 -75zM334 75c78 0 140 33 192 95c51 65 79 148 79 252c0 110 -28 196 -79 258
c-51 60 -114 90 -192 90c-74 0 -152 -39 -195 -98c-45 -61 -73 -157 -73 -250c0 -104 28 -187 83 -252c51 -62 112 -95 185 -95z" />
    <glyph glyph-name="P" unicode="P" 
d="M249 770h-183v-695h60v319h123c128 0 188 63 188 189c0 56 -16 101 -45 136c-30 35 -76 51 -143 51zM126 452v261h123c40 0 71 -13 93 -33c24 -23 35 -56 35 -97c0 -45 -12 -77 -35 -99s-53 -32 -88 -32h-128z" />
    <glyph glyph-name="Q" unicode="Q" horiz-adv-x="677" 
d="M389 254l68 -66c-31 -38 -78 -54 -123 -54c-50 0 -97 25 -142 75c-45 49 -66 120 -66 213c0 90 19 162 59 213c38 49 93 78 149 78c65 0 120 -32 156 -84c34 -52 56 -126 56 -207c0 -82 -15 -141 -46 -182l-64 64zM334 75c62 0 118 22 166 68l62 -64l49 51l-62 60
c37 56 56 133 56 232c0 110 -30 196 -79 258c-51 60 -113 90 -192 90c-74 0 -152 -39 -195 -98c-45 -61 -73 -157 -73 -250c0 -104 28 -187 83 -252c51 -62 112 -95 185 -95z" />
    <glyph glyph-name="R" unicode="R" horiz-adv-x="544" 
d="M249 770h-183v-695h60v319h133c47 0 78 -81 103 -176c19 -69 39 -129 55 -143h61c-23 33 -49 88 -69 172c-18 75 -47 145 -83 165c82 47 111 87 111 171c0 56 -12 101 -44 136c-31 35 -77 51 -144 51zM126 452v261h123c39 0 70 -11 94 -33c23 -23 34 -56 34 -97
c0 -45 -12 -76 -35 -99c-23 -22 -53 -32 -88 -32h-128z" />
    <glyph glyph-name="S" unicode="S" horiz-adv-x="510" 
d="M256 75c124 0 189 69 189 187c0 46 -18 85 -48 118c-31 33 -87 66 -155 96c-65 29 -116 78 -116 128c0 35 13 61 40 79c28 19 56 30 90 30c50 0 89 -20 120 -55l45 36c-41 54 -96 76 -165 76c-53 0 -99 -16 -136 -46c-36 -30 -54 -75 -54 -129c0 -37 14 -69 38 -95
c26 -26 64 -46 107 -65c62 -28 111 -56 136 -81c23 -21 39 -59 39 -96c0 -43 -15 -79 -37 -97c-25 -19 -56 -27 -93 -27c-33 0 -59 5 -83 22c-19 13 -42 39 -59 68l-46 -40c19 -30 38 -53 63 -76c28 -24 73 -33 125 -33z" />
    <glyph glyph-name="T" unicode="T" horiz-adv-x="672" 
d="M66 713h241v-638h59v638h240v57h-540v-57z" />
    <glyph glyph-name="U" unicode="U" horiz-adv-x="590" 
d="M66 770v-467c0 -69 20 -121 65 -164c43 -43 98 -64 165 -64c65 0 117 21 160 64c45 44 67 96 67 164v467h-59v-467c0 -49 -15 -94 -47 -125c-29 -28 -73 -44 -121 -44c-50 0 -95 13 -124 44s-46 76 -46 125v467h-60z" />
    <glyph glyph-name="V" unicode="V" horiz-adv-x="741" 
d="M339 75h62l274 695h-60l-245 -632l-245 632h-59z" />
    <glyph glyph-name="W" unicode="W" horiz-adv-x="1037" 
d="M320 75h62l137 393l136 -393h63l253 695h-57l-226 -632l-137 394h-64l-135 -395l-228 633h-58z" />
    <glyph glyph-name="X" unicode="X" horiz-adv-x="576" 
d="M67 75h58l163 310l166 -310h56l-194 347l194 348h-57l-165 -295l-163 295h-59l194 -348z" />
    <glyph glyph-name="Y" unicode="Y" horiz-adv-x="575" 
d="M259 75h57v350l194 345h-58l-164 -295l-164 295h-58l193 -345v-350z" />
    <glyph glyph-name="Z" unicode="Z" horiz-adv-x="590" 
d="M66 75h457v50h-392l392 589v56h-457v-48h394l-394 -591v-56z" />
    <glyph glyph-name="bracketleft" unicode="[" horiz-adv-x="229" 
d="M67 -136h152v57h-94v854h94v58h-152v-969z" />
    <glyph glyph-name="backslash" unicode="\" horiz-adv-x="229" 
d="M190 56h42l-182 779h-40z" />
    <glyph glyph-name="bracketright" unicode="]" horiz-adv-x="229" 
d="M177 -136v969h-152v-58h96v-854h-96v-57h152z" />
    <glyph glyph-name="asciicircum" unicode="^" horiz-adv-x="387" 
d="M88 435l115 338l114 -338h56l-146 400h-49l-143 -400h53z" />
    <glyph glyph-name="underscore" unicode="_" horiz-adv-x="458" 
d="M-2 -25v-31h483v31h-483z" />
    <glyph glyph-name="grave" unicode="`" horiz-adv-x="274" 
d="M183 710l-52 126h-74l82 -126h44z" />
    <glyph glyph-name="a" unicode="a" horiz-adv-x="427" 
d="M323 306v-102c0 -30 -14 -50 -38 -59c-20 -8 -46 -11 -72 -11c-75 0 -110 20 -110 70c0 24 10 41 29 54c17 11 45 16 83 16c45 0 82 10 108 32zM46 440l62 -20c7 19 24 35 41 42c18 9 44 11 64 11c38 0 68 -7 84 -21c15 -16 26 -32 26 -52c0 -19 -11 -38 -26 -49
c-15 -12 -44 -19 -84 -19c-73 0 -119 -13 -138 -38c-21 -26 -31 -57 -31 -90c0 -34 15 -69 44 -92c27 -23 76 -37 125 -37c44 0 81 6 110 19v-19h58v302c0 39 -14 79 -35 109c-22 30 -68 46 -133 46c-42 0 -74 -9 -105 -26c-22 -13 -43 -36 -62 -66z" />
    <glyph glyph-name="b" unicode="b" horiz-adv-x="485" 
d="M251 473c37 0 72 -18 94 -39c25 -26 36 -74 36 -131c0 -59 -13 -103 -36 -130s-56 -39 -94 -39c-39 0 -73 12 -95 39c-23 26 -34 73 -34 130s10 105 34 131c22 23 54 39 95 39zM62 75h60v58c35 -39 77 -58 129 -58c56 0 101 19 136 57c33 37 52 93 52 171
c0 76 -18 136 -52 172c-34 35 -83 57 -136 57c-52 0 -94 -20 -129 -59v297h-60v-695z" />
    <glyph glyph-name="c" unicode="c" horiz-adv-x="441" 
d="M341 427l57 10c-41 63 -98 95 -165 95c-56 0 -102 -22 -137 -57c-36 -37 -52 -96 -52 -172c0 -78 18 -134 53 -171c37 -38 82 -57 136 -57c68 0 124 33 165 93l-57 19c-25 -35 -60 -53 -108 -53c-41 0 -74 12 -96 39c-20 25 -34 70 -34 130c0 62 11 105 34 131
c22 25 55 39 96 39c46 0 83 -17 108 -46z" />
    <glyph glyph-name="d" unicode="d" horiz-adv-x="485" 
d="M364 75h58v695h-58v-298c-35 40 -76 60 -130 60c-56 0 -100 -21 -136 -57c-36 -38 -54 -96 -54 -172c0 -78 19 -137 54 -172c37 -37 80 -56 136 -56c54 0 95 19 130 58v-58zM234 473c38 0 73 -15 95 -39c23 -25 35 -74 35 -131c0 -59 -12 -104 -35 -130
c-22 -28 -57 -39 -95 -39c-41 0 -75 11 -96 39c-20 25 -34 71 -34 130c0 57 14 107 34 131c21 25 56 39 96 39z" />
    <glyph glyph-name="e" unicode="e" horiz-adv-x="468" 
d="M361 355h-255c3 41 17 68 36 87c22 21 53 31 92 31c41 0 69 -11 91 -31c21 -17 33 -46 36 -87zM396 164l-55 22c-24 -33 -59 -52 -107 -52c-80 0 -129 51 -130 163h318c0 83 -19 145 -51 178c-37 36 -83 57 -137 57c-57 0 -101 -21 -137 -57c-35 -36 -53 -96 -53 -172
c0 -78 19 -137 54 -172c37 -37 80 -56 136 -56c67 0 121 30 162 89z" />
    <glyph glyph-name="f" unicode="f" horiz-adv-x="349" 
d="M127 75h56v398h79v59h-79v90c0 67 22 91 67 91c18 0 38 -4 53 -9v55c-14 7 -31 11 -53 11c-36 0 -71 -10 -92 -34c-21 -22 -31 -65 -31 -114v-90h-83v-59h83v-398z" />
    <glyph glyph-name="g" unicode="g" horiz-adv-x="485" 
d="M151 -97v-53c119 -5 271 12 271 168v514h-58v-60c-35 40 -76 60 -130 60c-56 0 -100 -21 -136 -57c-36 -38 -54 -96 -54 -172c0 -78 19 -137 54 -172c37 -37 80 -56 136 -56c54 0 95 19 130 58v-118c0 -94 -95 -112 -213 -112zM234 473c38 0 73 -15 95 -39
c23 -25 35 -74 35 -131c0 -59 -12 -104 -35 -130c-22 -28 -57 -39 -95 -39c-41 0 -75 11 -96 39c-20 25 -34 71 -34 130c0 57 14 107 34 131c21 25 56 39 96 39z" />
    <glyph glyph-name="h" unicode="h" horiz-adv-x="485" 
d="M62 75h60v228c0 57 10 105 34 131c22 23 54 39 95 39c37 0 72 -18 94 -39c25 -26 36 -74 36 -131v-228h58v228c0 76 -18 136 -52 172c-34 35 -83 57 -136 57c-52 0 -94 -20 -129 -59v297h-60v-695z" />
    <glyph glyph-name="i" unicode="i" horiz-adv-x="236" 
d="M118 691c-19 0 -28 -14 -28 -29c0 -19 9 -29 28 -29c18 0 28 10 28 29c0 15 -10 29 -28 29zM90 75h56v457h-56v-457z" />
    <glyph glyph-name="j" unicode="j" horiz-adv-x="236" 
d="M118 691c-19 0 -28 -14 -28 -29c0 -19 9 -29 28 -29c18 0 28 10 28 29c0 15 -10 29 -28 29zM90 -164h56v696h-56v-696z" />
    <glyph glyph-name="k" unicode="k" horiz-adv-x="485" 
d="M62 75h60v195l96 91l156 -286h66l-183 321l130 136h-80l-185 -194v432h-60v-695z" />
    <glyph glyph-name="l" unicode="l" horiz-adv-x="236" 
d="M90 75h56v695h-56v-695z" />
    <glyph glyph-name="m" unicode="m" horiz-adv-x="793" 
d="M51 75h58v228c0 62 12 105 36 131c23 25 53 39 95 39c40 0 74 -15 95 -39c23 -25 36 -73 36 -131v-228h58v228c0 61 10 105 35 131c24 23 55 39 94 39c41 0 73 -14 98 -39c21 -24 33 -70 33 -131v-228h57v228c0 76 -17 135 -52 172c-34 35 -80 57 -136 57
c-72 0 -122 -36 -159 -89c-37 53 -89 89 -159 89c-51 0 -95 -20 -131 -59v59h-58v-457z" />
    <glyph glyph-name="n" unicode="n" horiz-adv-x="475" 
d="M51 75h59v228c0 57 14 107 35 131c21 25 54 39 95 39c38 0 74 -17 95 -39c23 -25 36 -74 36 -131v-228h59v228c0 76 -20 136 -54 172c-34 35 -82 57 -136 57c-51 0 -95 -20 -130 -59v59h-59v-457z" />
    <glyph glyph-name="o" unicode="o" horiz-adv-x="468" 
d="M234 473c38 0 73 -15 95 -39c23 -25 35 -74 35 -131c0 -59 -12 -104 -35 -130c-22 -28 -57 -39 -95 -39c-41 0 -75 11 -96 39c-20 25 -34 71 -34 130c0 57 14 107 34 131c21 25 56 39 96 39zM44 303c0 -78 19 -137 54 -172c37 -37 80 -56 136 -56c54 0 100 19 137 57
c34 36 51 93 51 171c0 76 -16 137 -51 172c-37 37 -83 57 -137 57c-56 0 -100 -21 -136 -57c-36 -38 -54 -96 -54 -172z" />
    <glyph glyph-name="p" unicode="p" horiz-adv-x="485" 
d="M251 473c37 0 72 -18 94 -39c25 -26 36 -74 36 -131c0 -59 -13 -103 -36 -130s-56 -39 -94 -39c-39 0 -73 12 -95 39c-23 26 -34 73 -34 130s10 105 34 131c22 23 54 39 95 39zM62 -164h60v297c35 -39 77 -58 129 -58c56 0 101 19 136 57c33 37 52 93 52 171
c0 76 -18 136 -52 172c-34 35 -83 57 -136 57c-52 0 -94 -20 -129 -59v59h-60v-696z" />
    <glyph glyph-name="q" unicode="q" horiz-adv-x="485" 
d="M364 -164h58v696h-58v-60c-35 40 -76 60 -130 60c-56 0 -100 -21 -136 -57c-36 -38 -54 -96 -54 -172c0 -78 19 -137 54 -172c37 -37 80 -56 136 -56c54 0 95 19 130 58v-297zM234 473c38 0 73 -15 95 -39c23 -25 35 -74 35 -131c0 -59 -12 -104 -35 -130
c-22 -28 -57 -39 -95 -39c-41 0 -75 11 -96 39c-20 25 -34 71 -34 130c0 57 14 107 34 131c21 25 56 39 96 39z" />
    <glyph glyph-name="r" unicode="r" horiz-adv-x="418" 
d="M51 75h58v228c0 61 11 105 35 131c23 25 54 39 95 39c42 0 75 -14 102 -39l33 44c-33 37 -76 54 -135 54c-52 0 -94 -18 -130 -59v59h-58v-457z" />
    <glyph glyph-name="s" unicode="s" horiz-adv-x="387" 
d="M288 437l50 29c-29 45 -78 66 -145 66c-54 0 -95 -13 -117 -37c-20 -22 -32 -55 -32 -94c0 -37 50 -84 124 -116c62 -26 116 -58 116 -82c0 -53 -30 -69 -91 -69c-47 0 -79 15 -91 45l-53 -16c27 -60 76 -88 144 -88c53 0 95 14 115 36c22 24 33 57 33 92
c0 40 -52 85 -122 117c-69 33 -115 60 -115 81c0 22 6 39 18 52s36 20 71 20c46 0 77 -12 95 -36z" />
    <glyph glyph-name="t" unicode="t" horiz-adv-x="349" 
d="M183 691h-56v-159h-83v-59h83v-249c0 -54 7 -92 31 -116c23 -24 56 -33 92 -33c21 0 39 3 53 12v53c-15 -4 -33 -6 -53 -6c-21 0 -39 6 -51 19c-11 13 -16 38 -16 71v249h120v59h-120v159z" />
    <glyph glyph-name="u" unicode="u" horiz-adv-x="475" 
d="M423 532h-58v-229c0 -59 -13 -104 -36 -130c-23 -27 -57 -39 -95 -39c-40 0 -74 11 -95 39c-20 25 -35 73 -35 130v229h-60v-229c0 -78 18 -136 55 -172c38 -36 82 -56 135 -56s96 19 131 58v-58h58v457z" />
    <glyph glyph-name="v" unicode="v" horiz-adv-x="533" 
d="M44 532l191 -457h62l192 457h-61l-161 -399l-162 399h-61z" />
    <glyph glyph-name="w" unicode="w" horiz-adv-x="813" 
d="M44 532l161 -457h65l136 393l134 -393h66l160 457h-55l-137 -398l-138 398h-63l-136 -397l-136 397h-57z" />
    <glyph glyph-name="x" unicode="x" horiz-adv-x="445" 
d="M44 532l149 -229l-150 -228h54l126 187l124 -187h54l-153 228l153 229h-55l-123 -186l-126 186h-53z" />
    <glyph glyph-name="y" unicode="y" horiz-adv-x="538" 
d="M49 532l196 -467l-43 -86c-32 -64 -63 -95 -89 -95h-69v-48h69c51 0 105 50 149 153l234 543h-57l-166 -399l-166 399h-58z" />
    <glyph glyph-name="z" unicode="z" horiz-adv-x="469" 
d="M44 469h315l-315 -334v-60h379v55h-314l314 332v61h-379v-54z" />
    <glyph glyph-name="braceleft" unicode="{" horiz-adv-x="275" 
d="M31 367v-67c18 -3 32 -9 47 -21s26 -32 32 -59c5 -24 11 -69 11 -136c0 -68 3 -119 7 -145c3 -23 9 -46 22 -65c8 -13 20 -20 34 -27c13 -7 34 -13 62 -13h14v62h-3c-25 0 -47 5 -58 15c-10 10 -20 24 -24 45c-3 13 -5 62 -5 139c0 76 -6 128 -21 160
c-14 31 -39 55 -79 75c35 22 58 41 68 59c12 20 22 45 28 78c4 24 4 88 4 182c0 49 8 80 20 94c14 16 36 27 67 27h3v60h-14c-52 0 -79 -11 -98 -41c-12 -19 -20 -50 -23 -80c-2 -23 -4 -66 -4 -127c0 -65 -5 -113 -10 -137c-10 -44 -42 -75 -80 -78z" />
    <glyph glyph-name="bar" unicode="|" horiz-adv-x="73" 
d="M15 -208h44v1043h-44v-1043z" />
    <glyph glyph-name="braceright" unicode="}" horiz-adv-x="275" 
d="M256 300v67c-19 2 -35 8 -47 20c-16 13 -26 32 -34 58c-6 24 -9 71 -9 137c0 68 -3 117 -7 142c-2 25 -12 48 -24 67c-7 12 -19 23 -31 29c-16 9 -37 10 -64 10h-15v-60h3c29 0 46 -8 58 -16c13 -10 20 -24 24 -44c3 -14 4 -61 4 -140c0 -73 8 -126 20 -156
c12 -28 40 -56 83 -82c-54 -25 -86 -64 -96 -133c-5 -25 -7 -87 -7 -182c0 -51 -5 -83 -17 -96c-12 -14 -35 -25 -69 -25h-3v-62h15c51 0 81 14 96 42c13 22 21 53 24 81c3 23 6 66 6 127c0 65 3 111 9 135c14 50 40 77 81 81z" />
    <glyph glyph-name="asciitilde" unicode="~" horiz-adv-x="481" 
d="M41 467v-76c17 17 33 32 45 38c21 10 39 17 56 17c27 0 59 -12 98 -32c34 -18 55 -31 68 -34c16 -4 29 -5 46 -5c41 0 77 18 110 53v78c-17 -15 -29 -24 -46 -35s-35 -17 -54 -17c-22 0 -48 9 -80 26c-37 19 -65 29 -83 35c-17 6 -35 9 -51 9c-43 0 -80 -19 -109 -57z
" />
    <glyph glyph-name="degree" unicode="&#xb0;" horiz-adv-x="456" 
d="M112 693c0 57 57 106 123 106c67 0 124 -49 124 -106c0 -65 -57 -109 -124 -109c-66 0 -123 44 -123 109zM86 693c0 -81 72 -140 149 -140c81 0 151 60 151 140c0 72 -70 136 -151 136c-78 0 -149 -64 -149 -136z" />
    <glyph glyph-name="section" unicode="&#xa7;" horiz-adv-x="569" 
d="M392 218l-15 1c-37 22 -78 48 -125 75c-119 70 -149 97 -149 147c0 41 27 70 103 112c33 -25 74 -49 118 -73c63 -36 108 -67 126 -87c21 -24 35 -49 35 -69c0 -34 -31 -73 -93 -106zM149 74l-63 -8c24 -96 97 -152 219 -152c123 0 198 64 198 148c0 45 -31 89 -100 139
c55 23 88 40 102 54c23 22 36 54 36 86c0 46 -28 84 -69 119c-20 17 -70 45 -114 68c-85 45 -154 91 -173 113c-16 18 -24 36 -24 56c0 49 56 92 133 92c70 0 113 -24 131 -108l66 9c-19 93 -87 146 -207 146c-111 0 -180 -70 -180 -143c0 -38 18 -76 82 -128
c-106 -34 -136 -78 -136 -135c0 -43 31 -94 66 -122c24 -20 63 -42 113 -70c98 -53 166 -98 189 -125c14 -16 23 -33 23 -53c0 -57 -55 -101 -136 -101c-85 0 -134 36 -156 115z" />
    <glyph glyph-name="bullet" unicode="&#x2022;" horiz-adv-x="398" 
d="M78 433c0 -67 61 -125 132 -125c72 0 135 58 135 125c0 68 -63 124 -135 124c-71 0 -132 -55 -132 -124z" />
    <glyph glyph-name="paragraph" unicode="&#xb6;" horiz-adv-x="612" 
d="M253 -166h59v936h176v-936h62v936h86v64h-361c-178 0 -266 -81 -266 -216c0 -118 85 -198 244 -210v-574z" />
    <glyph glyph-name="registered" unicode="&#xae;" horiz-adv-x="838" 
d="M300 444v165h111c95 0 143 -27 143 -82c0 -46 -37 -83 -138 -83h-116zM260 221h40v192h69c33 0 56 -7 73 -18c37 -23 77 -86 127 -174h55c-59 73 -80 140 -161 183l1 18c90 6 136 57 136 112c0 41 -36 82 -73 94c-23 6 -63 10 -116 10h-151v-417zM442 798
c67 0 132 -16 195 -46c63 -31 116 -81 150 -135c34 -52 57 -123 57 -181c0 -60 -19 -120 -57 -179c-35 -56 -82 -103 -145 -135c-64 -33 -132 -47 -200 -47s-141 14 -199 47c-65 34 -113 79 -149 135c-37 61 -55 119 -55 179c0 63 18 123 55 181c35 53 90 106 151 135
c55 26 135 46 197 46zM442 838c-71 0 -144 -18 -215 -53c-70 -33 -124 -83 -164 -148s-60 -130 -60 -201c0 -67 21 -137 60 -198c41 -63 95 -116 160 -149c70 -35 143 -51 219 -51c77 0 145 16 216 51c68 34 121 85 162 149c40 63 57 130 57 198c0 71 -17 140 -57 201
c-40 62 -94 116 -163 148c-73 35 -144 53 -215 53z" />
    <glyph glyph-name="copyright" unicode="&#xa9;" horiz-adv-x="838" 
d="M638 339l-36 7c-29 -60 -86 -100 -165 -100c-98 0 -172 64 -172 186s80 190 179 190c75 0 121 -24 150 -79l36 5c-35 64 -97 106 -188 106c-128 0 -219 -80 -219 -221c0 -138 89 -222 219 -222c83 0 166 42 196 128zM442 794c67 0 132 -16 195 -45s117 -80 150 -134
c35 -54 57 -121 57 -181c0 -62 -19 -120 -57 -180c-34 -56 -82 -101 -145 -133c-64 -33 -132 -48 -200 -48s-140 15 -199 48c-64 33 -114 79 -149 133c-38 61 -55 118 -55 180c0 63 18 122 55 181c35 53 91 103 151 134c55 29 136 45 197 45zM442 835
c-71 0 -144 -15 -215 -52c-70 -34 -123 -81 -164 -149c-39 -64 -60 -130 -60 -200c0 -66 20 -134 60 -199c40 -63 95 -116 160 -148c70 -35 143 -52 219 -52c77 0 145 17 216 52c68 32 121 83 162 148c40 63 57 131 57 199s-17 139 -57 200c-40 62 -94 117 -163 149
c-73 35 -144 52 -215 52z" />
    <glyph glyph-name="trademark" unicode="&#x2122;" horiz-adv-x="1137" 
d="M294 421h41v381h163v37h-367v-37h163v-381zM591 421h36v376c7 0 14 0 35 8l135 -384h40l3 10c8 29 20 62 32 91c5 17 26 78 45 134c19 59 40 120 50 141c16 -5 17 -1 35 -6v-370h34v418h-82c-11 -38 -37 -115 -59 -180l-5 -16c-12 -21 -24 -61 -36 -102
c-13 -40 -28 -78 -37 -107l-141 405h-85v-418z" />
    <glyph glyph-name="acute" unicode="&#xb4;" horiz-adv-x="378" 
d="M153 706h51l108 126h-92z" />
    <glyph glyph-name="plusminus" unicode="&#xb1;" horiz-adv-x="625" 
d="M600 79v63h-546v-63h546zM296 221h62v223h242v61h-242v221h-62v-221h-242v-61h242v-223z" />
    <glyph glyph-name="ordmasculine" unicode="&#xba;" horiz-adv-x="415" 
d="M218 787c75 0 130 -44 130 -145c0 -105 -55 -151 -130 -151c-80 0 -132 51 -132 148c0 110 54 148 132 148zM218 833c-107 0 -180 -74 -180 -195c0 -118 74 -190 180 -190c99 0 178 73 178 191c0 119 -72 194 -178 194z" />
    <glyph glyph-name="logicalnot" unicode="&#xac;" horiz-adv-x="664" 
d="M622 213v303h-547v-62h481v-241h66z" />
    <glyph glyph-name="guillemotleft" unicode="&#xab;" horiz-adv-x="512" 
d="M328 271l122 192h-39l-147 -192l146 -192h40zM137 271l122 192h-38l-148 -192l147 -192h39z" />
    <glyph glyph-name="guillemotright" unicode="&#xbb;" horiz-adv-x="512" 
d="M206 270l-122 -192h40l146 191l-146 193h-40zM396 270l-121 -192h38l145 192l-145 192h-38z" />
    <glyph glyph-name="ellipsis" unicode="&#x2026;" horiz-adv-x="951" 
d="M173 79h84v82h-84v-82zM447 79h86v82h-86v-82zM723 79h86v82h-86v-82z" />
    <glyph glyph-name="endash" unicode="&#x2013;" horiz-adv-x="633" 
d="M-12 256h662v51h-662v-51z" />
    <glyph glyph-name="emdash" unicode="&#x2014;" horiz-adv-x="1137" 
d="M-12 258h1197v51h-1197v-51z" />
    <glyph glyph-name="quotedblleft" unicode="&#x201c;" horiz-adv-x="411" 
d="M337 820l-17 17c-57 -54 -93 -125 -93 -192c0 -52 22 -73 54 -73c23 0 49 16 49 49c0 25 -22 40 -45 40h-6c-3 0 -6 0 -8 -1c-1 9 -2 16 -2 24c0 39 17 79 68 136zM184 820l-17 17c-59 -54 -94 -126 -94 -192c0 -52 22 -73 55 -73c21 0 48 16 48 49c0 25 -21 40 -45 40
h-5c-4 0 -7 0 -9 -1c-1 9 -2 16 -2 24c0 39 17 79 69 136z" />
    <glyph glyph-name="quotedblright" unicode="&#x201d;" horiz-adv-x="411" 
d="M73 589l17 -17c59 54 94 127 94 191c0 53 -22 74 -55 74c-22 0 -48 -15 -48 -50c0 -24 21 -39 45 -39h5c4 0 7 0 8 1c1 -9 3 -17 3 -25c0 -38 -19 -78 -69 -135zM227 589l17 -17c59 53 93 127 93 191c0 53 -21 74 -54 74c-23 0 -48 -15 -48 -50c0 -24 21 -39 45 -39h5
c4 0 7 0 8 1c1 -9 2 -17 2 -25c0 -39 -18 -77 -68 -135z" />
    <glyph glyph-name="quoteleft" unicode="&#x2018;" horiz-adv-x="257" 
d="M184 820l-17 17c-59 -54 -94 -126 -94 -192c0 -52 22 -73 55 -73c21 0 48 16 48 49c0 25 -21 40 -45 40h-5c-4 0 -7 0 -9 -1c-1 9 -2 16 -2 24c0 39 17 79 69 136z" />
    <glyph glyph-name="quoteright" unicode="&#x2019;" horiz-adv-x="257" 
d="M73 589l17 -17c59 54 94 127 94 191c0 53 -22 74 -55 74c-22 0 -48 -15 -48 -50c0 -24 21 -39 45 -39h5c4 0 7 0 8 1c1 -9 3 -17 3 -25c0 -38 -19 -78 -69 -135z" />
    <glyph glyph-name="currency" unicode="&#xa4;" horiz-adv-x="497" 
d="M118 380c0 68 63 123 139 123s139 -55 139 -123c0 -67 -64 -124 -139 -124c-76 0 -139 57 -139 124zM44 540l65 -56c-24 -34 -36 -71 -36 -104c0 -34 15 -71 35 -105l-64 -57l35 -31l63 58c41 -22 83 -37 115 -37c37 0 75 12 116 37l63 -58l35 31l-63 57
c24 35 35 71 35 105s-12 71 -33 104l61 56l-35 34l-63 -59c-41 25 -81 36 -116 36c-33 0 -73 -11 -115 -36l-63 59z" />
    <glyph glyph-name="guilsinglleft" unicode="&#x2039;" horiz-adv-x="378" 
d="M145 313l154 238h-50l-179 -238l179 -235h49z" />
    <glyph glyph-name="guilsinglright" unicode="&#x203a;" horiz-adv-x="378" 
d="M233 316l-154 -238h49l173 240l-173 233h-49z" />
    <glyph glyph-name="quotesinglbase" unicode="&#x201a;" horiz-adv-x="257" 
d="M73 -83l17 -17c59 54 94 127 94 191c0 53 -22 74 -55 74c-22 0 -48 -15 -48 -50c0 -25 21 -40 45 -40h5c4 0 7 0 8 1c1 -8 3 -16 3 -24c0 -38 -19 -79 -69 -135z" />
    <glyph glyph-name="quotedblbase" unicode="&#x201e;" horiz-adv-x="411" 
d="M73 -83l17 -17c59 54 94 127 94 191c0 53 -22 74 -55 74c-22 0 -48 -15 -48 -50c0 -25 21 -40 45 -40h5c4 0 7 0 8 1c1 -8 3 -16 3 -24c0 -38 -19 -79 -69 -135zM227 -83l17 -17c59 53 93 127 93 191c0 53 -21 74 -54 74c-23 0 -48 -15 -48 -50c0 -25 21 -40 45 -40h5
c4 0 7 0 8 1c1 -8 2 -16 2 -24c0 -38 -17 -79 -68 -135z" />
    <glyph glyph-name="tilde" unicode="&#x2dc;" horiz-adv-x="378" 
d="M15 734h42c8 37 31 51 67 51c16 0 39 -7 68 -21c39 -17 68 -29 92 -29c48 0 87 32 96 97h-38c-9 -40 -27 -49 -62 -49c-20 0 -39 6 -68 18c-43 17 -72 30 -93 30c-24 0 -51 -8 -68 -25c-17 -15 -28 -39 -36 -72z" />
    <glyph glyph-name="ring" horiz-adv-x="395" 
d="M140 733c0 29 34 56 69 56s66 -29 66 -57c0 -29 -30 -62 -66 -59c-38 -3 -66 31 -69 60zM102 733c0 -57 43 -105 107 -105c56 0 105 47 105 104c0 54 -49 101 -106 101c-60 0 -106 -48 -106 -100z" />
    <glyph glyph-name="brokenbar" unicode="&#xa6;" horiz-adv-x="231" 
d="M142 830h-39v-434h39v434zM142 232h-39v-431h39v431z" />
    <glyph glyph-name="macron" unicode="&#xaf;" horiz-adv-x="628" 
d="M-12 791h682v44h-682v-44z" />
    <glyph glyph-name="periodcentered" unicode="&#xb7;" horiz-adv-x="355" 
d="M142 254h85v84h-85v-84z" />
    <glyph glyph-name="uni10D0" unicode="&#x10d0;" horiz-adv-x="523" 
d="M472 278v61c0 212 -233 278 -233 436v61h-66v-61c0 -192 227 -237 227 -436v-58c0 -123 -43 -169 -139 -169c-103 0 -138 56 -138 156v38c0 24 11 66 31 105l-49 25c-31 -43 -54 -89 -54 -130v-35c0 -120 72 -220 210 -220c140 0 211 76 211 227z" />
    <glyph glyph-name="uni10D1" unicode="&#x10d1;" horiz-adv-x="523" 
d="M123 271v95c0 88 38 162 138 162c94 0 139 -88 139 -159v-104c0 -68 -38 -153 -139 -153c-96 0 -138 76 -138 159zM189 836h-72c0 -102 142 -104 144 -155c0 -30 -1 -46 -22 -95c-135 -20 -188 -123 -188 -214v-113c0 -96 72 -208 210 -208s211 123 211 207l-1 115
c0 81 -55 187 -165 213c19 37 27 56 27 97c0 79 -144 67 -144 153z" />
    <glyph glyph-name="uni10D2" unicode="&#x10d2;" horiz-adv-x="581" 
d="M461 349v-64c0 -101 -53 -174 -170 -174c-118 0 -174 93 -174 174v49c0 110 61 179 161 179h35c99 0 148 -95 148 -164zM533 276l1 72c2 122 -92 199 -162 221l50 109c0 97 -52 158 -160 158c-84 0 -166 -55 -166 -133v-66h64v66c0 41 33 71 102 71c56 0 96 -61 96 -96
l-51 -103c-179 -6 -261 -119 -261 -238v-61c0 -89 87 -225 242 -225c170 0 243 127 245 225z" />
    <glyph glyph-name="uni10D3" unicode="&#x10d3;" horiz-adv-x="790" 
d="M665 591v-85c0 -76 -7 -184 -121 -184c-86 0 -124 57 -124 184v85c0 119 19 183 124 183c116 0 121 -97 121 -183zM579 51v69h-92c-235 0 -364 162 -364 384v59c0 73 4 211 113 211c83 0 113 -84 113 -185v-80c0 -142 65 -248 195 -248c137 0 194 127 194 242v88
c0 114 -42 245 -194 245c-78 0 -128 -27 -161 -124c-35 94 -68 124 -147 124c-167 0 -185 -169 -185 -273v-62c0 -225 137 -450 436 -450h92z" />
    <glyph glyph-name="uni10D4" unicode="&#x10d4;" horiz-adv-x="528" 
d="M466 228v437c0 111 -86 171 -197 171c-114 0 -188 -69 -188 -172c0 -43 13 -82 38 -116l53 40c-20 31 -24 53 -24 76c0 68 52 110 127 110c74 0 120 -44 120 -109v-435c0 -72 -55 -118 -139 -118c-95 0 -139 45 -139 125s18 101 70 149l-44 44c-54 -42 -97 -92 -97 -192
c0 -107 88 -187 210 -187c111 0 210 52 210 177z" />
    <glyph glyph-name="uni10D5" unicode="&#x10d5;" horiz-adv-x="518" 
d="M466 232v84c0 48 0 109 -97 157c97 50 92 125 92 161v34c0 84 -65 168 -199 168c-115 0 -196 -82 -196 -155v-25c0 -39 16 -73 43 -108l59 27c-20 28 -30 45 -30 85v16c0 40 47 98 124 98c89 0 128 -57 128 -111v-23c0 -43 -8 -137 -76 -137h-67v-62h67
c61 0 81 -77 81 -125v-84c0 -73 -44 -120 -139 -120c-93 0 -139 56 -139 122v31c0 41 14 59 56 92l-56 34c-50 -32 -71 -85 -71 -122v-40c0 -84 71 -178 210 -178c138 0 210 86 210 181z" />
    <glyph glyph-name="uni10D6" unicode="&#x10d6;" horiz-adv-x="569" 
d="M301 696v-40c0 -60 -58 -87 -105 -87c-73 0 -109 37 -109 87v39c0 53 42 79 107 79c48 0 107 -26 107 -78zM149 279v61c0 115 67 158 149 158c85 0 148 -52 148 -166v-47c0 -114 -63 -173 -148 -173c-82 0 -149 55 -149 167zM368 672v26c0 82 -49 138 -175 138
c-100 0 -172 -51 -172 -138v-24c0 -92 48 -145 151 -155c-52 -31 -93 -79 -93 -170v-81c0 -145 96 -217 219 -217c126 0 221 72 221 217v84c0 106 -76 207 -221 207c41 27 70 76 70 113z" />
    <glyph glyph-name="uni10D7" unicode="&#x10d7;" horiz-adv-x="841" 
d="M400 635v-303c0 -137 -35 -220 -133 -220c-107 0 -134 83 -134 245v182c0 111 20 235 134 235c98 0 133 -73 133 -139zM779 385v159c0 133 -21 292 -189 292c-72 0 -115 -10 -152 -114c-36 101 -114 114 -171 113c-171 -2 -205 -142 -205 -276v-210
c0 -148 41 -298 205 -298c153 0 205 146 205 284v300c0 66 1 139 118 139c111 0 118 -131 118 -248v-148c0 -133 -47 -266 -139 -266v-61c154 0 210 182 210 334z" />
    <glyph glyph-name="uni10D8" unicode="&#x10d8;" horiz-adv-x="544" 
d="M466 361l1 187c0 153 -33 288 -211 288c-174 0 -210 -158 -210 -293v-185c0 -127 22 -284 143 -307l1 61c-45 0 -73 93 -73 246v187c0 143 26 229 143 229c107 0 135 -84 135 -226v-190c0 -156 -41 -246 -90 -246l6 -61c119 27 154 176 155 310z" />
    <glyph glyph-name="uni10D9" unicode="&#x10d9;" horiz-adv-x="512" 
d="M461 257v52c0 92 -28 164 -125 194c64 23 105 63 105 143v22c0 97 -99 168 -168 168v-62c47 0 97 -54 97 -106v-37c0 -65 -46 -98 -99 -98h-96v-61h100c67 0 115 -79 115 -163v-52c0 -82 -36 -145 -139 -145c-94 0 -139 65 -139 125v24c0 30 11 65 38 86l-38 43
c-37 -25 -71 -72 -71 -119v-45c0 -81 82 -175 210 -175c133 0 210 93 210 206z" />
    <glyph glyph-name="uni10DA" unicode="&#x10da;" horiz-adv-x="1047" 
d="M996 542v74c0 138 -82 215 -185 215c-55 0 -113 -19 -152 -106c-32 87 -75 111 -136 111c-65 0 -104 -24 -132 -116c-43 92 -86 111 -155 111c-129 0 -185 -101 -185 -235l1 -73c4 -230 222 -461 625 -461h72v69h-74c-299 0 -553 158 -551 392l-1 70c0 98 33 176 113 176
c110 0 115 -69 115 -141v-162h67v162c0 72 25 146 105 146c88 0 105 -71 105 -149v-159h66v159c0 80 20 144 118 144c61 0 111 -55 111 -158v-64c0 -72 -51 -192 -130 -251l45 -41c88 50 158 201 158 287z" />
    <glyph glyph-name="uni10DB" unicode="&#x10db;" horiz-adv-x="533" 
d="M395 381v-110c0 -102 -47 -160 -134 -160c-88 0 -144 63 -144 160v108c0 76 49 160 140 160c78 0 138 -45 138 -158zM466 258l1 424c0 92 -96 154 -201 154c-100 0 -197 -62 -197 -134v-59h73v59c0 38 41 72 123 72c65 0 135 -34 135 -92v-171c-34 74 -94 88 -141 88
c-138 0 -213 -118 -213 -220v-108c0 -125 75 -220 213 -220c123 0 207 80 207 207z" />
    <glyph glyph-name="uni10DC" unicode="&#x10dc;" horiz-adv-x="533" 
d="M411 386v-117c0 -101 -46 -157 -139 -157c-95 0 -139 68 -139 150v123c0 152 91 154 140 154c92 0 138 -65 138 -153zM482 261v128c0 108 -75 210 -210 210c-45 0 -103 -18 -146 -84v170c0 46 21 81 74 79c50 0 92 -20 142 -20c44 0 80 11 125 38v54
c-49 -22 -77 -35 -118 -35c-50 0 -106 25 -163 25c-69 0 -124 -43 -124 -137v-427c0 -130 88 -211 211 -211c135 0 209 82 209 210z" />
    <glyph glyph-name="uni10DD" unicode="&#x10dd;" horiz-adv-x="852" 
d="M721 530v-136c0 -140 -44 -282 -136 -282v-61c159 0 209 192 209 338l1 144c0 148 -32 303 -201 303c-92 0 -139 -42 -166 -114c-32 72 -76 114 -161 114c-177 0 -201 -158 -201 -311v-136c0 -154 43 -338 211 -338v61c-101 0 -139 145 -139 279v134
c0 145 17 249 128 249c87 0 129 -46 129 -153v-315h71v315c0 101 42 153 128 153c119 0 127 -104 127 -244z" />
    <glyph glyph-name="uni10DE" unicode="&#x10de;" horiz-adv-x="512" 
d="M461 279v67c0 42 -29 111 -115 155c71 38 90 88 90 125v23c0 130 -267 83 -267 187h-72c0 -153 268 -109 268 -192v-17c0 -52 -23 -94 -81 -94h-78v-61h78c59 0 106 -65 106 -126v-59c0 -114 -40 -175 -139 -175c-78 0 -139 68 -139 144v17c0 38 1 58 25 92l-55 38
c-20 -22 -41 -75 -41 -119v-45c0 -95 91 -188 210 -188c125 0 210 88 210 228z" />
    <glyph glyph-name="uni10DF" unicode="&#x10df;" horiz-adv-x="532" 
d="M471 238v583l-420 -46v-62c73 -20 166 -51 164 -135c-2 -76 -73 -85 -164 -85v-62c179 0 237 92 237 145c0 103 -95 131 -131 158l243 25v-513c0 -69 -53 -134 -134 -134s-143 47 -143 120v27c0 11 13 48 34 69l-53 34c-33 -28 -53 -57 -53 -105v-23
c0 -120 84 -183 215 -183c119 0 205 63 205 187z" />
    <glyph glyph-name="uni10E1" unicode="&#x10e1;" horiz-adv-x="533" 
d="M482 284v47c0 110 -128 167 -128 243c0 27 11 39 31 65l-72 20c-21 -30 -26 -56 -26 -85c0 -77 124 -146 124 -254v-29c0 -106 -47 -179 -139 -179c-81 0 -139 48 -139 178v546h-71v-546c0 -163 87 -239 210 -239c122 0 210 99 210 233z" />
    <glyph glyph-name="uni10E3" unicode="&#x10e3;" horiz-adv-x="572" 
d="M511 271v453c0 65 -80 109 -152 109c-38 0 -74 -21 -104 -52c-17 31 -47 52 -97 52c-32 0 -54 -41 -76 -41c-20 0 -55 23 -72 40v-68c18 -21 44 -41 70 -41c33 0 44 55 84 55c39 0 62 -17 62 -54v-189h55v189c0 27 27 53 73 53c52 0 86 -26 86 -53v-450
c0 -92 -24 -162 -127 -162c-96 0 -149 61 -149 145v49c0 32 11 67 40 92l-40 38c-30 -25 -72 -84 -72 -130v-49c0 -121 83 -206 221 -206c125 0 198 74 198 220z" />
    <glyph glyph-name="uni10E4" unicode="&#x10e4;" horiz-adv-x="805" 
d="M376 606v-47c0 -105 -30 -156 -130 -156c-88 0 -129 30 -129 156v47c0 137 43 168 129 168c85 0 130 -40 130 -168zM741 240v33c0 61 -11 136 -126 161c125 30 139 110 139 173v25c0 127 -60 204 -195 204c-52 0 -112 -18 -148 -111c-37 89 -103 111 -165 111
c-121 0 -200 -77 -200 -230v-47c0 -134 71 -220 200 -220c136 0 200 95 200 220v54c0 92 29 161 113 161c108 0 122 -53 122 -146v-26c0 -67 -32 -138 -106 -138h-57v-61h57c76 0 95 -82 95 -135v-28c0 -96 -101 -128 -210 -128c-96 0 -224 11 -224 116l-70 14
c0 -170 140 -191 294 -191c162 0 281 62 281 189z" />
    <glyph glyph-name="uni10E5" unicode="&#x10e5;" horiz-adv-x="528" 
d="M466 227v609h-168v-57h102v-208c-39 58 -89 110 -164 110c-100 0 -160 -60 -158 -140c1 -66 17 -87 71 -119l28 51c-28 28 -33 27 -33 68c0 33 12 80 92 80c78 0 159 -110 159 -164v-236c0 -71 -57 -109 -139 -109c-98 0 -139 43 -139 115l1 12c3 21 5 40 28 62l-38 41
c-37 -16 -62 -67 -62 -90v-20c0 -110 91 -181 210 -181c120 0 210 63 210 176z" />
    <glyph glyph-name="uni10E6" unicode="&#x10e6;" horiz-adv-x="790" 
d="M718 488v103c0 173 -46 245 -185 245c-73 0 -113 -19 -150 -127c-35 108 -71 127 -148 127c-135 0 -184 -107 -184 -277v-74c0 -221 152 -434 421 -434h82v76h-82c-214 0 -349 157 -349 358v74c0 155 34 215 114 215c84 0 112 -36 112 -177v-146h71v146
c0 138 18 177 114 177c86 0 112 -37 112 -185v-92c0 -51 -11 -140 -83 -182l45 -43c55 37 110 100 110 216z" />
    <glyph glyph-name="uni10E7" unicode="&#x10e7;" horiz-adv-x="518" 
d="M466 252v584h-71l-1 -237c0 -14 -22 -136 -135 -136c-69 0 -131 82 -131 143v42c0 58 56 141 88 157l-44 47c-64 -47 -110 -120 -110 -191v-76c0 -89 75 -183 197 -183c63 0 96 15 136 72v-213c0 -94 -28 -149 -139 -149c-66 0 -139 41 -139 100c0 20 8 62 27 82l-43 38
c-36 -26 -55 -66 -55 -120c0 -108 103 -161 210 -161c146 0 210 71 210 201z" />
    <glyph glyph-name="uni10E8" unicode="&#x10e8;" horiz-adv-x="587" 
d="M454 353v-82c0 -89 -68 -159 -148 -159c-90 0 -150 82 -150 169v57c0 94 66 175 151 173c99 0 147 -45 147 -158zM525 271v387c0 121 -38 177 -146 177c-53 0 -86 -26 -117 -78c-28 55 -59 78 -125 78c-63 0 -112 -52 -112 -116v-83h58v83c0 25 13 60 61 60
c45 0 90 -25 90 -84v-27h59v27c0 51 24 84 78 84c84 0 88 -30 88 -124v-167c-29 72 -106 86 -153 86c-134 0 -221 -104 -221 -225v-71c0 -111 101 -227 221 -227c114 0 219 88 219 220z" />
    <glyph glyph-name="uni10E9" unicode="&#x10e9;" horiz-adv-x="533" 
d="M320 637l55 -10c22 29 28 54 28 82c0 100 -108 127 -178 127c-87 0 -163 -54 -163 -135v-650h66v307c0 54 50 140 144 140c122 0 139 -105 139 -160v-62c0 -101 -54 -169 -100 -235h68c42 51 103 125 103 232v65c0 109 -46 221 -210 221c-53 0 -108 -24 -144 -83v217
c0 47 43 81 95 81c43 0 115 -8 115 -65c0 -34 -4 -51 -18 -72z" />
    <glyph glyph-name="uni10EB" unicode="&#x10eb;" horiz-adv-x="533" 
d="M400 379v-111c0 -71 -50 -156 -139 -156c-87 0 -138 40 -138 153v114c0 107 50 160 138 160c87 0 139 -71 139 -160zM472 265v571h-72v-310c-51 63 -101 73 -139 73c-144 0 -210 -89 -210 -214v-112c0 -126 66 -222 210 -222c129 0 211 90 211 214z" />
    <glyph glyph-name="uni10ED" unicode="&#x10ed;" horiz-adv-x="523" 
d="M282 563v-12c0 -29 -51 -53 -89 -53c-53 0 -64 17 -64 56c0 29 9 58 64 58c27 0 89 -28 89 -49zM472 439v58c-48 29 -99 46 -146 58c71 28 115 54 146 75v54c-35 -34 -78 -59 -139 -88c11 37 16 80 16 109v131h-150v-57h91v-70c0 -34 -2 -59 -3 -113
c-27 32 -54 66 -94 66c-65 0 -121 -30 -121 -108c0 -87 56 -111 121 -111c17 0 62 30 97 60c0 -109 110 -145 110 -226v-29c0 -80 -43 -136 -139 -136c-91 0 -138 68 -138 144c0 32 0 45 23 78l-45 41c-31 -31 -50 -73 -50 -116c0 -117 81 -208 210 -208
c134 0 211 75 211 197v22c0 97 -140 170 -140 246c55 -12 101 -51 140 -77z" />
    <glyph glyph-name="uni10EE" unicode="&#x10ee;" horiz-adv-x="533" 
d="M133 265v111c0 117 54 163 139 163c89 0 139 -59 139 -166v-108c0 -95 -52 -153 -139 -153s-139 58 -139 153zM62 836v-588c0 -95 82 -197 210 -197c144 0 210 102 210 197v140c0 125 -66 211 -210 211c-37 0 -87 -13 -139 -75v312h-71z" />
    <glyph glyph-name="uni10EF" unicode="&#x10ef;" horiz-adv-x="512" 
d="M51 718v-62h159c31 -167 190 -193 190 -346l-1 -56c-2 -84 -34 -142 -137 -142c-92 0 -139 83 -139 142v61c0 36 38 80 66 101l-37 43c-38 -25 -101 -92 -101 -144v-64c0 -81 72 -200 211 -200c137 0 210 93 210 203v56c0 181 -162 186 -195 346h174v62h-180v1v117h-66
v-117v-1h-154z" />
    <glyph glyph-name="uni10F0" unicode="&#x10f0;" horiz-adv-x="523" 
d="M472 232c0 56 -26 122 -99 141c51 20 84 53 84 109c0 51 -41 84 -87 97c46 25 71 72 71 113c0 134 -201 144 -318 142v-60c108 0 247 3 247 -85c0 -21 -11 -79 -66 -79h-89v-62h89c66 0 81 -31 81 -66c0 -43 -8 -78 -67 -78h-87v-57h87c60 0 82 -56 82 -128
s-50 -107 -139 -107c-103 0 -138 47 -138 180h-72c0 -169 72 -241 210 -241c119 0 211 45 211 181z" />
    <glyph glyph-name="uni10FB" unicode="&#x10fb;" horiz-adv-x="396" 
d="M41 132v-82h81v82h-81zM41 506v-81h81v81h-81zM274 317v-81h81v81h-81z" />
    <glyph glyph-name="Euro" unicode="&#x20ac;" horiz-adv-x="633" 
d="M534 383c9 7 7 3 6 3h-390v103h409c0 21 4 25 9 44h-412c48 157 153 242 310 243c52 0 104 -16 155 -41c5 20 14 45 15 66c-45 20 -108 33 -168 37c-95 -8 -181 -41 -250 -89c-68 -49 -122 -121 -143 -216l-71 -4s-1 -6 -2 -13c-1 -3 -2 -7 -3 -12c0 -1 -3 -4 -3 -15h74
v-103h-66c-1 -1 -1 -2 -1 -3l-1 -5c0 -2 2 -7 -6 -32l86 -5c24 -95 75 -165 143 -217c68 -51 154 -82 241 -89c49 0 102 9 147 24v70c-45 -23 -97 -35 -157 -35c-56 0 -119 16 -172 45c-57 36 -102 105 -125 202c245 0 368 2 369 6v7l2 7c3 12 4 19 4 22z" />
    <glyph glyph-name="figuredash" unicode="&#x2012;" horiz-adv-x="633" 
d="M663 272v54h-663v-54h663z" />
    <glyph glyph-name="uni10E0" unicode="&#x10e0;" horiz-adv-x="831" 
d="M779 297v78c0 166 -99 224 -200 224c-54 0 -125 -2 -164 -119c-33 117 -101 119 -163 119l-64 -14l-40 -12c59 121 205 201 442 201v62c-440 0 -539 -236 -539 -461v-75c0 -87 72 -249 211 -249v61c-85 0 -139 112 -139 182v81c0 137 66 169 129 169
c54 0 127 -37 127 -156v-115h72v115c0 119 74 156 128 156c48 0 129 -32 129 -169v-79c0 -72 -62 -184 -139 -184v-62c121 0 210 159 210 247z" />
    <glyph glyph-name="uni10EC" unicode="&#x10ec;" horiz-adv-x="588" 
d="M133 284v76c0 113 50 151 149 151c47 0 84 -17 109 -48s38 -74 38 -128v-57c0 -86 -50 -166 -147 -166c-95 0 -149 82 -149 172zM62 656v-381c0 -128 94 -224 220 -224c136 0 221 105 221 222v67c0 122 -87 234 -221 234c-49 0 -110 -20 -154 -75v154c0 93 6 126 90 126
c54 0 76 -37 76 -89v-28h60v28c0 59 42 89 87 89c47 0 64 -30 64 -56v-67h58v67c0 64 -51 113 -115 113c-65 0 -94 -20 -122 -74c-32 52 -66 74 -121 74c-108 0 -143 -59 -143 -180z" />
    <glyph glyph-name="uni10E2" unicode="&#x10e2;" horiz-adv-x="646" 
d="M605 326v151c0 167 -129 285 -261 296l27 63h-103l32 -63c-131 -13 -259 -132 -259 -296v-151c0 -160 144 -275 283 -275c137 0 281 117 281 275zM533 477v-151c0 -115 -87 -214 -209 -214c-129 0 -212 108 -212 214v151c0 150 81 224 188 235l-16 -335h76l-16 335
c115 -8 189 -83 189 -235z" />
    <glyph glyph-name="uni10EA" unicode="&#x10ea;" horiz-adv-x="594" 
d="M544 285v40c0 49 -1 132 -123 162c122 30 123 92 123 127c0 115 -166 119 -166 222h-60c0 -143 154 -139 154 -224c0 -30 -28 -94 -98 -94h-76v-61h76c69 0 98 -57 98 -135v-37c0 -90 -60 -173 -168 -173c-111 0 -181 114 -181 214v196c0 73 15 196 57 272l-47 42
c-71 -115 -82 -245 -82 -314v-196c0 -165 113 -275 253 -275c136 0 240 98 240 234z" />
    <glyph glyph-name="uni10F1" unicode="&#x10f1;" horiz-adv-x="523" 
d="M472 233c0 56 -26 115 -99 136c77 18 99 49 99 107c0 64 -36 93 -102 103c58 18 102 47 102 121c0 107 -103 136 -210 136v-62c100 0 138 -29 138 -76c0 -58 -41 -88 -96 -88h-42v-62h42c66 0 96 -37 96 -71c0 -43 -23 -78 -82 -78h-56v-57l56 -1c60 -2 82 -36 82 -108
c0 -82 -51 -121 -138 -121c-90 0 -145 66 -145 148v576h-66v-572c0 -139 82 -213 210 -213c119 0 211 46 211 182z" />
    <glyph glyph-name="uni10F2" unicode="&#x10f2;" horiz-adv-x="519" 
d="M123 367v192c0 80 0 215 139 215c138 0 138 -115 138 -195v-212c0 -87 -105 -211 -138 -211c-34 0 -139 122 -139 211zM51 87v-62c72 0 138 40 211 83c4 -6 67 -83 210 -83v62c-34 0 -165 21 -165 44c93 17 165 145 165 236v212c0 195 -72 257 -210 257
c-139 0 -211 -62 -211 -257v-212c0 -88 72 -214 156 -236c-2 -23 -83 -44 -156 -44z" />
    <glyph glyph-name="uni10F3" unicode="&#x10f3;" horiz-adv-x="512" 
d="M472 257v52c0 93 -29 164 -125 194c64 23 125 155 125 235v87h-406v-153h72v92h262c0 -130 -67 -231 -119 -231h-96v-61h100c68 0 115 -79 115 -163v-52c0 -82 -35 -145 -139 -145c-93 0 -138 65 -138 125v24c0 30 10 65 37 86l-37 43c-37 -25 -72 -72 -72 -119v-45
c0 -81 82 -175 210 -175c134 0 211 93 211 206z" />
    <glyph glyph-name="uni10F4" unicode="&#x10f4;" horiz-adv-x="521" 
d="M472 232v30c0 69 -32 109 -112 134c90 24 112 98 112 337c-78 -55 -186 -124 -252 -124c-77 0 -97 47 -97 80c0 43 50 85 186 85v62c-220 0 -258 -106 -258 -144c0 -93 72 -133 170 -133c64 0 140 25 179 67c0 -161 -50 -198 -102 -198h-36v-62h36c69 0 102 -15 102 -102
v-38c0 -83 -56 -114 -138 -114c-79 0 -139 49 -139 134c0 25 15 52 32 76l-45 44c-39 -40 -59 -86 -59 -118c0 -111 90 -197 211 -197c124 0 210 65 210 181z" />
    <glyph glyph-name="uni10F5" unicode="&#x10f5;" horiz-adv-x="544" 
d="M400 336v-110c0 -65 -32 -116 -138 -116c-78 0 -139 41 -139 113c0 92 61 113 139 113h138zM123 652c0 85 61 120 139 120c106 0 138 -66 138 -123v-107h-138c-78 0 -139 30 -139 110zM472 336l60 3v60l-60 -1v84h60l1 60h-61v107c0 107 -76 185 -210 185
c-133 0 -211 -75 -211 -182c0 -105 101 -170 211 -170h138v-85l-138 1c-133 1 -211 -59 -211 -172c0 -109 78 -177 211 -177c134 0 210 70 210 177v110z" />
    <glyph glyph-name="uni10F6" unicode="&#x10f6;" horiz-adv-x="749" 
d="M626 638v-203c0 -87 -26 -129 -108 -129c-39 0 -110 14 -110 129v206c0 85 5 133 110 133c87 0 108 -48 108 -136zM231 836c-139 0 -180 -62 -180 -195v-206c0 -131 80 -192 190 -192v56c-62 0 -118 23 -118 136v209c0 85 5 130 108 130c80 0 110 -43 110 -136l-2 -420
c0 -74 -64 -110 -139 -110v-57c125 0 208 44 208 167v74c37 -40 53 -49 110 -49c94 0 179 66 179 192v209c0 130 -41 192 -179 192c-87 0 -108 -24 -142 -85c-39 61 -71 85 -145 85z" />
    <glyph glyph-name="_175" unicode="&#xad;" horiz-adv-x="378" 
d="M23 270h351v69h-351v-69z" />
    <glyph glyph-name="dagger" unicode="&#x2020;" horiz-adv-x="556" 
d="M304 708h-47v-229l-199 -51v-42l195 51v-489h46v485l200 -52v42l-195 52v233z" />
  </font>
</defs>
</svg>
